<svg height="847" viewBox="0 0 1644 847" width="1644" xmlns="http://www.w3.org/2000/svg"><g fill="none" fill-rule="evenodd"><path d="m545.1 395.8c1.656854 0 3 1.343146 3 3 0 1.597681-1.24892 2.903661-2.823727 2.994907l-.176273.005093h-128.9c-74.517044 0-127.435156 59.288775-119.385926 133.086089l.262618 2.240677 24.4 194.6c.206132 1.643982-.959477 3.143795-2.603458 3.349926-1.585268.19877-3.036482-.877968-3.322943-2.429189l-.026983-.174269-24.400022-194.600173c-9.72884-77.628033 45.079397-140.798368 122.717111-142.054012l2.359603-.019049z" fill="#2e186a"/><g transform="translate(371 333)"><path d="m262.558631.03264532c1.264716-.18811552 2.509673.44604369 3.101124 1.57965666l3.49774 6.69567704c.128132.24461693.221723.50545652.278379.77505504l.035528.20372456 4.2 30.19999998c.095857.6892528-.051105 1.3881161-.411909 1.978177l-.114627.1736358-16 22.5c-.960186 1.3502622-2.833175 1.666481-4.183437.7062946-1.298329-.9232562-1.640627-2.6904494-.811435-4.0253998l.10514-.1580376 15.308866-21.5284286-3.964-28.504-2.268-4.341-.320315.0499502c-38.978939 6.0951266-63.371466 17.22011-74.548746 32.4994927l-.341477.4738818c-9.716674 13.6906843-8.970763 30.881869 1.16182 51.1470345.887157 1.7743149-.161267 3.9057552-2.108226 4.2860101-65.85399 12.8617527-119.4440613 68.0872167-151.4177531 147.3775887-28.80696182 71.437316-35.28470732 152.771354-16.6316512 204.970226l3.0299907 8.559305c6.4119374 18.026152 10.3007602 26.77979 16.0888088 34.56099 7.4382008 9.999593 16.6589793 15.067985 29.3837607 15.187654 1.656781.015581 2.9872365 1.371298 2.9716554 3.028079-.015581 1.656781-1.3712982 2.987236-3.0280792 2.971655-14.6778073-.138035-25.6227957-6.154176-34.1415101-17.606364l-.4833658-.657275c-5.8285468-8.017664-9.7814767-16.863264-15.9229522-34.012989l-3.4228115-9.659663c-.0422774-.118699-.084295-.236588-.1261924-.354058-19.1953878-53.716536-12.60001813-136.527453 16.717741-209.231476 32.0107799-79.382346 85.5050399-135.436969 151.7599529-150.1720446l.29035-.0639974-.201433-.4433199c-9.115792-20.2252537-9.326076-38.1569556.854945-52.8859868l.332026-.474018c12.382654-17.4470199 39.065567-29.51954432 81.330093-35.80602998z" fill="#2e186a"/><g fill="#fe7624" transform="translate(234 60)"><path d="m66.3 83.3c0-.2 0-.4 0-.6 4.7.5 9.3.5 13.8-3.3 11-9.5 14.9-12.4 14.9-12.4s1 1.2 2.8 3.2c2.2-4 4.4-8.2 6.7-12.4-47.5-36.8-83.8-55.4-83.8-55.4l-2.7-1.9-17.4 21.3s28.4 19.5 65.7 61.5z"/><path d="m295.9 428.5s-76-204.4-66.3-267.7c5.3-34.6-3-73.7-14.4-104l-21.8 1.4-26.1 61.6c1.7.4 3.4.8 5.1 1 0 0-1 6.5-3.5 21.3-1.7 9.9 1.2 11 3.4 17.9 2.9 4.6 5.1 9.8 2.7 17.9-.8 2.6-2.7 27.4-7 61 8 16.9 15.6 34.9 22.8 54.1 46.1 122.9 41.3 136.3 41.3 136.3z"/></g><g fill="#2e186a"><path d="m434.061895 6.92780727c.536927-1.56744224 2.242855-2.40283972 3.810298-1.8659125 30.387316 10.40917273 51.597053 26.84870823 65.436623 48.31238523 10.031153 15.5572339 15.370488 31.7491545 18.908827 52.210761l.144357.847959 2.024768 1.544638c96.816672 74.145685 165.995827 157.750051 211.964427 245.468133l1.399957 2.686526c17.282084 33.352676 30.303291 65.633789 39.656135 96.139899 6.575935 21.448682 10.660085 39.686397 12.858303 54.074728.250227 1.63785-.874664 3.168439-2.512514 3.418666s-3.168439-.874664-3.418666-2.512514l-.233792-1.499194c-2.206724-13.872318-6.169679-31.304423-12.42978-51.722953-9.249352-30.168549-22.135404-62.114595-39.24699-95.138226-46.022541-88.818852-115.99392-173.492219-214.638202-248.403536-.610794-.463842-1.020745-1.144002-1.145616-1.900723-3.413714-20.6871054-8.537972-36.7083472-18.373846-51.962724-13.103256-20.3217338-33.217735-35.9123411-62.338377-45.8876148-1.567442-.5369272-2.402839-2.24285569-1.865912-3.81029793z"/><path d="m481.846915 206.102699c2.14075.07868 3.826603 1.825746 3.852827 3.94453l-.004521.257935-.020553.662186c-.017432.606931-.034911 1.321864-.051254 2.139594-.450189 22.524956.682525 49.791583 4.716987 75.872694 1.827188 11.812007 4.174939 22.607281 7.085701 32.153768.644292 2.113098-.54641 4.348404-2.659508 4.992696s-4.348404-.54641-4.992696-2.659508c-3.03092-9.940569-5.45774-21.099415-7.339466-33.263989-4.040168-26.117993-5.2236-53.26331-4.833654-75.951565l.059153-2.847523.042768-1.450432c.07868-2.14075 1.825746-3.826603 3.94453-3.852827z"/><path d="m516.6 107.3c.7 4.3 1.3 8.2 1.8 11.6 6.1 39.8-7 66.3-15.7 84.6 23.3-16.5 39.1-47.9 47-71.8-9.5-7.6-22.6-16.6-33.1-24.4z"/><path d="m187 90c-16.3 3.3-43.1 11.5-62.5 24.8 13.5 7.4 80.4 47.4 135 71.4.4-.2 3.4-5.2 4.9-7.2-30.2-23.9-62-58.1-77.4-89z"/></g></g><g fill="#2e186a" transform="translate(565)"><path d="m36.2119683 260.805349c1.5986717-.435218 3.2474651.507948 3.682683 2.106619.4196744 1.541577-.442337 3.129758-1.9378745 3.631467l-.5234069.155529c-.1597514.049072-.3599723.112564-.5974786.190833-.815451.268728-1.730199.60244-2.718637 1.003704-2.8281317 1.148101-5.6556825 2.598448-8.2773477 4.363872-11.0407474 7.434819-15.0125371 17.621844-8.2276898 31.960488 4.2584979 9.008361 10.2060518 12.831411 17.7982672 12.794674 6.0469413-.029259 12.7644235-2.451538 20.1082475-6.621336 1.4408011-.818082 3.2719877-.313269 4.0900697 1.127533.818082 1.440801.3132684 3.271987-1.1275327 4.090069-8.1592946 4.63282-15.7455146 7.36836-23.0417525 7.403664-9.9446834.048119-18.0060405-5.133669-23.2512518-16.229309-8.17942805-17.285858-3.01274456-30.5376 10.300284-39.502569 2.9939853-2.016144 6.1832029-3.652001 9.3718396-4.946452 1.9236949-.780939 3.4398126-1.280569 4.3515805-1.528786z"/><path d="m132.653835 124.617947c-6.230921 1.249635-11.572068 2.737201-16.019674 4.237464l-.600952.204639c-37.7808169 12.861555-60.6208262 35.399932-70.9636466 64.785627-7.5799632 21.535952-7.8086401 44.38925-3.6700443 65.713378.5202509 2.680594 1.0751199 5.11778 1.634417 7.28204l.246779.936525.1682296.618077c.1077162.390331.2063369.737002.2945322 1.038706l.1616776.544674c.1127969 1.951839 2.0580716 3.295459 3.9435298 2.666973l10.2763167-3.42605.1396833.107392c8.5632104 6.696041 31.5686766 35.669188 38.9798239 49.768444.8213052 1.562483 2.8074948 2.081633 4.2883228 1.120881l.882695-.556096.909574-.558948c.323421-.196895.667016-.404254 1.030614-.621743l.753818-.448382c2.985779-1.76642 6.499061-3.737983 10.514178-5.86358 11.492933-6.084341 24.686799-12.172803 39.37585-17.857059l1.883767-.723512c11.955897-4.557447 24.392944-8.641752 37.254449-12.140837l2.017662-.541628 2.11311-.465323c.479565-.103904.984365-.212287 1.512671-.324629l1.087442-.229813c3.727412-.782946 7.679458-1.565975 11.679791-2.296403 3.18385-.581345 6.268007-1.10499 9.204448-1.556777l2.008781-.301131c7.240845-1.055757 13.094071-1.575418 17.029696-1.432823 1.847048.066922 3.314706-1.536149 3.085458-3.370137-4.773985-38.191875-13.821093-77.266025-26.786162-110.128873-9.930498-25.197478-29.745437-37.066627-55.700884-38.494494-9.393909-.51678-19.093985.379684-28.735953 2.313418zm28.406377 3.677524c23.783124 1.308362 41.46007 11.896853 50.448722 34.704507l.586275 1.497343c11.865632 30.535159 20.357463 66.479093 25.148046 101.946106l.247745 1.865573-.077704.003118c-4.404574.153613-10.001921.778682-16.572794 1.789647-2.995053.460805-6.133625.993689-9.369783 1.584585-3.549231.64806-7.057653 1.336298-10.409076 2.029613l-2.529243.530418c-.714602.151959-1.387236.296868-2.01384.433502l-1.783024.394628-.107594.026536c-14.481106 3.856652-28.437381 8.445678-41.793742 13.614219-14.917136 5.772518-28.323784 11.959171-40.017762 18.149946l-1.613152.860004c-3.436601 1.845155-6.491701 3.570382-9.148817 5.142361l-1.057469.629423-.109277-.18909c-9.6153686-16.474043-32.8092165-45.137037-40.7247184-49.968577l-.1768864-.099922c-.7183433-.374304-1.5608975-.443429-2.3348015-.185461l-8.6513167 2.88305c-.5809652-2.186776-1.1646614-4.709238-1.7103882-7.521097-3.9528053-20.366841-3.7343796-42.195665 3.4396194-62.578205 9.633542-27.370516 30.7672968-48.403813 66.1688628-60.729791l1.077145-.370847c4.33803-1.491198 9.630136-2.987149 15.858426-4.236257 9.17834-1.840751 18.385756-2.691684 27.226547-2.205332z"/><path d="m57.6472921 262.955295c.8394066-.281122 1.760119-.177169 2.5157125.284038 7.8363468 4.783224 30.6470007 32.923657 40.4322124 49.470735l.401783.686932 1.057469-.629423 1.25456-.736289c2.779183-1.618344 5.953814-3.384809 9.507409-5.266076 11.693978-6.190775 25.100626-12.377428 40.017762-18.149946 12.720344-4.92242 25.984827-9.319203 39.728591-13.058303l2.065151-.555916 1.423187-.320126 2.468809-.53526 1.100165-.233444c3.767029-.794451 7.761238-1.588817 11.809964-2.330625 2.787604-.510746 5.503148-.978193 8.117286-1.3933l1.298483-.20315c8.647238-1.332221 15.606231-1.991577 20.385425-1.782269 1.379549.060418 2.53967 1.054723 2.810481 2.408779l.140357.735487.27817 1.552505c.064439.3716.131223.764666.200058 1.178624l.228442 1.405239c.380186 2.392091.756459 5.03206 1.111377 7.886103 2.099328 16.881579 2.699914 34.39886.883614 50.824965-.065518.592522-.134153 1.182367-.205932 1.769485-.201065 1.64461-1.697279 2.814833-3.341888 2.613768-1.64461-.201065-2.814833-1.697279-2.613768-3.341888.06897-.564136.13494-1.131083.197935-1.70079 1.757605-15.895282 1.172191-32.970028-.874099-49.425106l-.210029-1.64468c-.318296-2.428054-.65029-4.678909-.983343-6.727549l-.261636-1.566815-.301553.006244c-4.036502.090505-9.439315.663112-15.861974 1.635879l-.668037.102055c-2.949965.454481-6.048893.982022-9.248048 1.568171-3.493337.64005-6.948793 1.320432-10.248744 2.005798l-3.008043.635236-2.421278.528614-.727323.163003-1.968225.53056c-12.861505 3.499085-25.298552 7.58339-37.254449 12.140837l-1.883767.723512c-14.689051 5.684256-27.882917 11.772718-39.37585 17.857059l-1.579221.841903c-3.104671 1.66689-5.885976 3.230837-8.330775 4.665673l-1.358.804386c-.363598.217489-.707193.424848-1.030614.621743l-1.568677.971933c-.096108.060976-.170695.108792-.223592.143111-1.480828.960752-3.4670176.441602-4.2883228-1.120881-7.3370358-13.958263-29.9580636-42.494428-38.7186249-49.560917l-.3988823-.313919-16.521 5.533 5.5556036 11.238478 4.2630917 8.575935c3.1949128 6.411512 6.3735163 12.754087 9.462265 18.872811l4.279512 8.446171c9.0333748 17.757072 15.8675417 30.703711 19.6072534 36.971198 11.9501987 19.953543 18.9916693 25.897641 46.0092563 36.543703 9.078525 3.514267 20.648572 5.497704 32.517018 5.497704 1.656854 0 3 1.343146 3 3s-1.343146 3-3 3c-12.581554 0-24.883302-2.108871-34.699816-5.90887l-2.489717-.991106c-25.719266-10.349274-33.8942019-17.307089-45.7338668-36.813973l-.752839-1.248848c-3.7828238-6.339732-10.5177664-19.086505-19.4289335-36.590167l-2.6152821-5.150225c-4.0670871-8.028959-8.322157-16.515586-12.5913751-25.093621l-3.6654382-7.379963-6.6160425-13.401834c-.7727307-1.575007-.0331082-3.45943 1.5715446-4.103914l.1690577-.062184z"/><path d="m40 282s-19.1-22.2-32.9-48.7c-13-24.9-7.6-55.8 13.9-73.8 18-15.1 35.2-11.1 35.2-11.1s-31.1-31.6-6.6-72.6c8.6-14.4 22.9-24.8 39.4-28.4 40.2-8.8 61 21.8 61 21.8s23.1-89.2 122.3-64.6c10 2.5 23.2 13.1 30.2 20.7 42.3 46.1-37.3 133.1-85.7 150.5-53.1 19.2-87.3 18.2-108.2 9.2 15.1 4.6 15.6 89.3-68.6 97z"/><path d="m191.889753 250.656846c2.002685-.754519 4.230575.202121 5.07596 2.14212l.077441.190787 18.8 49.9c.9667 2.565868-.874526 5.300342-3.578223 5.407024l-.185656.003169-19.3-.1c-2.209109-.011446-3.990667-1.811562-3.979221-4.020671.011099-2.142167 1.704106-3.882302 3.821008-3.97536l.199663-.003861 13.485275.069946-16.749154-44.459753c-.754519-2.002685.202121-4.230575 2.14212-5.07596z"/><circle cx="183" cy="338" r="9.5"/><ellipse cx="213.46716" cy="250.28198" rx="5.399993" ry="8.399989" transform="matrix(.97010131 -.24270033 .24270033 .97010131 -54.36113 59.291654)"/><ellipse cx="162.57553" cy="262.09269" rx="5.399993" ry="8.399989" transform="matrix(.97010131 -.24270033 .24270033 .97010131 -58.749187 47.293363)"/><path d="m149.61715 211.718364c2.198997-.211442 4.153044 1.399789 4.364486 3.598786s-1.399789 4.153044-3.598786 4.364486c-5.486806.527578-9.76567 2.729265-13.079836 6.102547-1.345887 1.369894-2.436373 2.841535-3.284776 4.304255l-.22786.402322c-.316656.573311-.5208 1.007155-.620401 1.251709l-.029339.074439c-.782537 2.065897-3.091649 3.106267-5.157546 2.32373s-3.106267-3.091649-2.32373-5.157546c.249328-.658225.717803-1.665637 1.438678-2.908487 1.168733-2.014998 2.655237-4.021076 4.498337-5.897052 4.578296-4.659959 10.569475-7.742718 18.020773-8.459189z"/><path d="m199.661167 197.803603c3.64051-1.263583 7.401331-1.811107 11.081606-1.184352 4.541614.773443 8.393542 3.300174 11.073421 7.699976 1.14918 1.886712.551291 4.347788-1.335421 5.496967-1.886712 1.14918-4.347788.551291-5.496967-1.335421-1.450844-2.381983-3.281709-3.582967-5.584106-3.975068-2.150908-.366302-4.638216-.004184-7.115336.855598-.642235.222913-1.228642.460923-1.741469.695563l-.449088.214117-.08202.042572c-1.940483 1.055851-4.369491.338715-5.425342-1.601768s-.338715-4.369491 1.601768-5.425342l.344364-.180771c.742973-.377283 1.807754-.843623 3.12859-1.302071z"/></g><path d="m1354.8 563.4h-388.8c-5.1 0-9.5 3.5-10.7 8.5l-54.1 228.8h-140.9s-7.8 40.3 37.7 40.3h496.4c5.1 0 9.5-3.5 10.7-8.5l60.4-255.6c1.6-6.9-3.6-13.5-10.7-13.5z" fill="#2e186a"/><g transform="translate(1097 206)"><path d="m103.5 18.6h-3.1c-2.8 0-5-2.2-5-5v-7.9c0-2.8 2.2-5 5-5h3.1c2.8 0 5 2.2 5 5v7.9c0 2.8-2.2 5-5 5z" fill="#fe7624"/><path d="m85.4 18.6h-79.8c-2.8 0-5-2.2-5-5v-7.9c0-2.8 2.2-5 5-5h79.8c2.8 0 5 2.2 5 5v7.9c0 2.8-2.2 5-5 5z" fill="#2e186a"/><path d="m93.6 101.7h-87.9c-2.8 0-5-2.2-5-5v-7.9c0-2.8 2.2-5 5-5h87.9c2.8 0 5 2.2 5 5v7.9c0 2.8-2.3 5-5 5z" fill="#2e186a"/><path d="m172.3 74h-141.9c-2.8 0-5-2.2-5-5v-7.9c0-2.8 2.2-5 5-5h141.9c2.8 0 5 2.2 5 5v7.9c0 2.8-2.2 5-5 5z" fill="#fe7624"/><path d="m262.8 74h-72c-2.8 0-5-2.2-5-5v-7.9c0-2.8 2.2-5 5-5h72c2.8 0 5 2.2 5 5v7.9c0 2.8-2.2 5-5 5z" fill="#fe7624"/><g fill="#2e186a"><path d="m290.6 46.4h-3.1c-2.8 0-5-2.2-5-5v-7.9c0-2.8 2.2-5 5-5h3.1c2.8 0 5 2.2 5 5v7.9c0 2.7-2.2 5-5 5z"/><path d="m152.7 46.3h-147.1c-2.8 0-5-2.2-5-5v-7.9c0-2.8 2.2-5 5-5h147.1c2.8 0 5 2.2 5 5v7.9c0 2.8-2.2 5-5 5z"/><path d="m199.1 18.6h-79.8c-2.8 0-5-2.2-5-5v-7.9c0-2.8 2.2-5 5-5h79.8c2.8 0 5 2.2 5 5v7.9c0 2.8-2.3 5-5 5z"/></g><path d="m270.5 46.4h-100.8c-2.8 0-5-2.2-5-5v-8c0-2.8 2.2-5 5-5h100.8c2.8 0 5 2.2 5 5v8c0 2.7-2.2 5-5 5z" fill="#fe7624"/></g><g transform="translate(1097 359)"><path d="m85.4 45h-79.8c-2.8 0-5-2.2-5-5v-7.9c0-2.8 2.2-5 5-5h79.8c2.8 0 5 2.2 5 5v7.9c0 2.8-2.2 5-5 5z" fill="#2e186a"/><path d="m93.6 128.1h-87.9c-2.8 0-5-2.2-5-5v-7.9c0-2.8 2.2-5 5-5h87.9c2.8 0 5 2.2 5 5v7.9c0 2.7-2.3 5-5 5z" fill="#2e186a"/><path d="m172.3 100.4h-141.9c-2.8 0-5-2.2-5-5v-7.9c0-2.8 2.2-5 5-5h141.9c2.8 0 5 2.2 5 5v7.9c0 2.8-2.2 5-5 5z" fill="#fe7624"/><path d="m262.8 100.4h-72c-2.8 0-5-2.2-5-5v-7.9c0-2.8 2.2-5 5-5h72c2.8 0 5 2.2 5 5v7.9c0 2.8-2.2 5-5 5z" fill="#fe7624"/><g fill="#2e186a"><path d="m290.6 72.8h-3.1c-2.8 0-5-2.2-5-5v-7.9c0-2.8 2.2-5 5-5h3.1c2.8 0 5 2.2 5 5v7.9c0 2.7-2.2 5-5 5z"/><path d="m313.4 45h-3.1c-2.8 0-5-2.2-5-5v-7.9c0-2.8 2.2-5 5-5h3.1c2.8 0 5 2.2 5 5v7.9c0 2.8-2.2 5-5 5z"/><path d="m152.7 72.7h-147.1c-2.8 0-5-2.2-5-5v-7.9c0-2.8 2.2-5 5-5h147.1c2.8 0 5 2.2 5 5v7.9c0 2.8-2.2 5-5 5z"/></g><path d="m199.1 45h-98.6c-2.8 0-5-2.2-5-5v-7.9c0-2.8 2.2-5 5-5h98.6c2.8 0 5 2.2 5 5v7.9c0 2.8-2.3 5-5 5z" fill="#fe7624"/><path d="m295.8 45h-79.8c-2.8 0-5-2.2-5-5v-7.9c0-2.8 2.2-5 5-5h79.8c2.8 0 5 2.2 5 5v7.9c0 2.8-2.2 5-5 5z" fill="#fe7624"/><path d="m103.5 18.2h-3.1c-2.8 0-5-2.2-5-5v-7.9c0-2.8 2.2-5 5-5h3.1c2.8 0 5 2.2 5 5v7.9c0 2.7-2.2 5-5 5z" fill="#fe7624"/><path d="m85.4 18.2h-79.8c-2.8 0-5-2.2-5-5v-7.9c0-2.8 2.2-5 5-5h79.8c2.8 0 5 2.2 5 5v7.9c0 2.7-2.2 5-5 5z" fill="#2e186a"/><path d="m199.1 18.2h-79.8c-2.8 0-5-2.2-5-5v-7.9c0-2.8 2.2-5 5-5h79.8c2.8 0 5 2.2 5 5v7.9c0 2.7-2.3 5-5 5z" fill="#2e186a"/><path d="m270.5 72.8h-100.8c-2.8 0-5-2.2-5-5v-8c0-2.8 2.2-5 5-5h100.8c2.8 0 5 2.2 5 5v8c0 2.7-2.2 5-5 5z" fill="#fe7624"/></g><g fill="#2e186a"><g transform="translate(1379 690)"><path d="m112.671499 41.5087148c16.059028-1.2267313 30.005874 10.8214105 31.119786 26.8627842 1.226731 16.0590276-10.82141 30.0058737-26.941472 31.124758-2.515517.1257758-4.568908.0744411-6.594834-.2294479-1.638524-.2457786-2.767567-1.7733071-2.521788-3.4118305.245778-1.6385234 1.773307-2.7675662 3.41183-2.5217877 1.574074.236111 3.254016.2781096 5.347146.1740168 12.739802-.8847084 22.289676-11.9395771 21.315041-24.6993749-.884709-12.7398014-11.939577-22.2896755-24.658072-21.3181955-2.079606.1733005-4.144531.6044388-6.100453 1.2564126-1.57183.5239433-3.27079-.3255366-3.794733-1.8973666s.325537-3.2707899 1.897367-3.7947332c2.402902-.8009674 4.936817-1.3300266 7.520182-1.5452353z"/><path d="m4.09806614 1.47994664c1.23204817-1.01000872 3.02707523-.87577969 4.09714151.2751375l.12484571.142982 37.30000004 45.49999996c1.050409 1.2813301.8632105 3.1715782-.4181195 4.2219873-1.2320482 1.0100087-3.0270753.8757796-4.0971415-.2751375l-.1248458-.142982-37.29999996-45.50000004c-1.05040907-1.2813301-.86321059-3.17157816.4181195-4.22198722z"/><path d="m.5 35.2v85.8c0 16.6 13.4 30 30 30h50.6c16.6 0 30-13.4 30-30v-85.8zm44.8 62.8c.7.5 1 1 1 1.8 0 .6-.2 1-.6 1.4s-.9.6-1.4.6c-.4 0-.7-.1-1-.3l-20-12c-.7-.5-1.1-1.1-1.1-1.8s.4-1.3 1.1-1.8l20-12c.3-.2.6-.3 1-.3.6 0 1 .2 1.4.6s.6.9.6 1.4c0 .7-.3 1.3-1 1.8l-17.2 10.3zm25-29.6-16.1 40.2c-.1.2-.2.4-.4.6-.4.4-.9.6-1.4.6-.6 0-1-.2-1.4-.6s-.6-.9-.6-1.4c0-.3.1-.6.2-.9l16.1-40.2c.1-.2.2-.4.4-.6.4-.4.9-.6 1.4-.6.6 0 1 .2 1.4.6s.6.9.6 1.4c0 .4-.1.7-.2.9zm27.2 21.1-20 12c-.3.2-.6.3-1 .3-.6 0-1-.2-1.4-.6s-.6-.9-.6-1.4c0-.7.3-1.3 1-1.8l17.2-10.3-17.2-10.3c-.7-.5-1-1-1-1.8 0-.6.2-1 .6-1.4s.9-.6 1.4-.6c.4 0 .7.1 1 .3l20 12c.7.5 1.1 1.1 1.1 1.8s-.3 1.4-1.1 1.8z"/></g><g transform="translate(215 725)"><path d="m27.0128651 6.50584226c1.9422205-.12138878 3.676065-.09386744 5.2836261.12047404 1.6423201.21897602 2.7961685 1.7278547 2.5771925 3.37017486-.218976 1.64232014-1.7278547 2.79616854-3.3701749 2.57719254-1.1762227-.1568297-2.5345438-.1783903-4.095676-.0808914-12.7045878.882263-22.20323156 11.9094241-21.31504054 24.6993749.88470843 12.7398014 11.93957714 22.2896755 24.67870674 21.3165476 1.6520413-.1261976 3.0935886 1.110743 3.2197862 2.7627842.1261976 1.6520413-1.110743 3.0935886-2.7627842 3.2197862-16.0590276 1.2267313-30.00587369-10.8214105-31.12129326-26.8834524-1.11683187-16.082379 10.86115766-29.98786105 26.90565736-31.10199054z"/><path d="m27.6.2v85.8c0 16.6 13.4 30 30 30h50.6c16.6 0 30-13.4 30-30v-85.8zm44.7 62.8c.7.5 1 1 1 1.8 0 .6-.2 1-.6 1.4s-.9.6-1.4.6c-.4 0-.7-.1-1-.3l-20-12c-.7-.5-1.1-1.1-1.1-1.8s.4-1.3 1.1-1.8l20-12c.3-.2.6-.3 1-.3.6 0 1 .2 1.4.6s.6.9.6 1.4c0 .7-.3 1.3-1 1.8l-17.2 10.3zm42.2-8.5-20 12c-.3.2-.6.3-1 .3-.6 0-1-.2-1.4-.6s-.6-.9-.6-1.4c0-.7.3-1.3 1-1.8l17.2-10.3-17.2-10.3c-.7-.5-1-1-1-1.8 0-.6.2-1 .6-1.4s.9-.6 1.4-.6c.4 0 .7.1 1 .3l20 12c.7.5 1.1 1.1 1.1 1.8s-.4 1.4-1.1 1.8z"/></g><g transform="translate(388 662)"><path d="m24.9493686 1.1740395c1.3965639-.77148895 3.1407481-.31210675 3.9834311 1.01801033l.0931608.15731877 13.7 24.8c.8011616 1.4502779.2749488 3.2754303-1.1753291 4.0765919-1.3965639.7714889-3.1407481.3121067-3.9834311-1.0180103l-.0931608-.1573188-13.7-24.8c-.8011616-1.45027793-.2749488-3.2754303 1.1753291-4.0765919z"/><path d="m85.5 28.3c1.6568542 0 3 1.3431458 3 3 0 1.5976809-1.24892 2.9036609-2.8237272 2.9949073l-.1762728.0050927h-75.8c-1.65685425 0-3-1.3431458-3-3 0-1.5976809 1.24891996-2.9036609 2.82372721-2.9949073l.17627279-.0050927z"/><g transform="translate(0 32)"><path d="m75 80.1c-1.1-1.1-2.5-1.7-4.2-1.7-1.6 0-3 .6-4.2 1.7-1.1 1.1-1.7 2.5-1.7 4.2 0 1.6.6 3 1.7 4.2 1.1 1.1 2.5 1.7 4.2 1.7 1.6 0 3-.6 4.2-1.7 1.1-1.1 1.7-2.5 1.7-4.2s-.5-3.1-1.7-4.2z"/><path d="m70.9 71.3c1.6 0 3-.6 4.2-1.7 1.1-1.1 1.7-2.5 1.7-4.2 0-1.6-.6-3-1.7-4.2-1.1-1.1-2.5-1.7-4.2-1.7-1.6 0-3 .6-4.2 1.7-1.1 1.1-1.7 2.5-1.7 4.2 0 1.6.6 3 1.7 4.2 1.2 1.1 2.5 1.7 4.2 1.7z"/><path d="m75 107.2c1.1-1.1 1.7-2.5 1.7-4.2 0-1.6-.6-3-1.7-4.2-1.1-1.1-2.5-1.7-4.2-1.7-1.6 0-3 .6-4.2 1.7-1.1 1.1-1.7 2.5-1.7 4.2 0 1.6.6 3 1.7 4.2 1.1 1.1 2.5 1.7 4.2 1.7s3.1-.6 4.2-1.7z"/><path d="m93 17.4-13.3-17.3h-64.1l-13.3 17.3c-1.3 1.7-2 3.6-2 5.6v105.3c0 3.3 1.8 6.3 4.9 8.3 4.1 2.6 9.4 6.5 9.7 10.3h65.3c.4-3.8 5.6-7.8 9.7-10.3 3.1-1.9 4.9-5 4.9-8.3v-105.3c.1-2-.5-4-1.8-5.6zm-27.8 20.2 7-11.7c.3-.4.6-.6 1.1-.6.4 0 .8.2 1.1.6l7 11.7c.1.2.1.4.1.6 0 .3-.1.6-.3.8s-.5.3-.8.3c-.4 0-.8-.2-1-.6l-6-10-6 10c-.3.4-.6.6-1 .6-.3 0-.6-.1-.8-.3s-.3-.5-.3-.8c-.3-.3-.2-.5-.1-.6zm.4 4.4c.2-.1.4-.2.7-.2s.6.1.8.3.3.5.3.8-.1.6-.3.8-.4.3-.4.4c-1.1 1.1-1.7 2.5-1.7 4.2 0 1.6.5 2.9 1.5 3.9.3.2.6.4 1 .4.5 0 .8-.3.9-.7l2.4-7.2c.3-.9.7-1.5 1-1.9.7-.7 1.5-1 2.5-1s1.8.4 2.5 1.1c1.4 1.4 2.2 3.2 2.2 5.5 0 2.5-1 4.6-2.9 6.3-.2.2-.4.2-.7.2s-.6-.1-.8-.3-.3-.5-.3-.8.1-.6.3-.8.4-.3.4-.4c1.1-1.1 1.7-2.5 1.7-4.2 0-1.6-.5-2.9-1.5-3.9-.3-.2-.6-.4-1-.4-.5 0-.8.3-.9.7l-2.4 7.2c-.3.9-.7 1.5-1 1.9-.7.7-1.5 1-2.5 1s-1.8-.4-2.5-1.1c-1.4-1.4-2.2-3.2-2.2-5.5 0-2.5.9-4.6 2.9-6.3zm-.5 17.6c1.6-1.6 3.5-2.4 5.8-2.4s4.2.8 5.8 2.4 2.4 3.5 2.4 5.8-.8 4.2-2.4 5.8-3.5 2.4-5.8 2.4-4.2-.8-5.8-2.4-2.4-3.5-2.4-5.8.8-4.2 2.4-5.8zm-2.1 51.3c-.2-.2-.3-.5-.3-.8s.1-.6.3-.8.5-.3.8-.3h1.3c-1.6-1.6-2.5-3.6-2.5-5.9s.8-4.2 2.4-5.8 3.5-2.4 5.8-2.4 4.2.8 5.8 2.4 2.4 3.5 2.4 5.8-.8 4.2-2.4 5.8-3.5 2.4-5.8 2.4h-7c-.3-.1-.6-.2-.8-.4zm18.3 4.4-7 11.7c-.3.4-.6.6-1.1.6-.4 0-.8-.2-1.1-.6l-7-11.7c-.1-.2-.1-.4-.1-.6 0-.3.1-.6.3-.8s.5-.3.8-.3c.4 0 .8.2 1 .6l6 10 6-10c.3-.4.6-.6 1-.6.3 0 .6.1.8.3s.3.5.3.8c.2.3.2.4.1.6zm4.5-23.2c-.2.2-.5.3-.8.3h-14.1c-2.3 0-4.2-.8-5.8-2.4s-2.4-3.5-2.4-5.8.8-4.2 2.4-5.8 3.5-2.4 5.8-2.4 4.2.8 5.8 2.4 2.4 3.5 2.4 5.8-.8 4.2-2.4 5.8c0 0 0 0-.1.1h8.4c.3 0 .6.1.8.3s.3.5.3.8-.1.7-.3.9z"/></g></g><g transform="translate(509 337)"><path d="m212.056051 14.7630462c4.357101-5.93963284 12.15295-4.3627876 20.101731 3.8527327 7.738196 8.0113093 12.711058 18.641131 15.460637 30.1893595.383761 1.6117981-.611759 3.2295188-2.223557 3.6132802-1.611799.3837615-3.229519-.6117589-3.613281-2.223557-2.521843-10.5917407-7.056484-20.2848366-13.937613-27.4088305-5.723193-5.9152462-9.354091-6.6496582-10.950019-4.4740773-1.943586 2.6495115-1.686748 8.6788051 1.191619 14.4571597l.179506.3534324c4.174858 8.0774422 5.343856 23.9859756 4.733485 43.6704327-.051351 1.6560583-1.435479 2.9569309-3.091538 2.9055802-1.656058-.0513506-2.95693-1.4354791-2.90558-3.0915374l.058103-2.0990701c.422076-17.3734151-.716462-31.7138617-3.991522-38.366654l-.132143-.2620006c-3.993312-7.7131099-4.417858-16.2931811-.879828-21.1162505z"/><path d="m345.9.8c-16.071486 0-29.1 13.0285138-29.1 29.1s13.028514 29.1 29.1 29.1 29.1-13.0285138 29.1-29.1-13.028514-29.1-29.1-29.1zm0 6c12.757778 0 23.1 10.3422223 23.1 23.1s-10.342222 23.1-23.1 23.1-23.1-10.3422223-23.1-23.1 10.342222-23.1 23.1-23.1z"/><path d="m190.143528 125.367962c1.262942-.912124 3.002861-.701579 4.014375.456584l.543947.684614c.364122.457488.795412.990207 1.291333 1.591861 1.42326 1.726707 3.074877 3.653979 4.934436 5.731393 5.316535 5.939391 11.223048 11.879477 17.552373 17.41611 15.202762 13.298749 30.338422 22.111991 44.399786 24.390089 1.159568.187863 2.102807 1.035214 2.413434 2.168087l.065109.256981c.101439.429898.218273 1.060069.328995 1.895367.587199 4.429899.491723 10.533944-.715327 18.413393l-.1094.699856c-.623981 3.914064.325739 6.659012 3.481346 11.496457l1.577658 2.383503c2.291933 3.500252 3.423418 5.643702 4.268936 8.489554 1.216819 4.095582 1.172844 8.428975-.310892 13.299431l-.01923.090306c-.360217 2.003896-3.338632 30.970379-4.76235 43.42316l-.130097 1.128964c-3.779384 32.51045-8.315647 62.854981-14.168589 91.595212-7.716245 37.889771-17.074548 69.450013-28.394074 93.013152-13.645314 28.404587-29.865608 44.554715-49.181513 45.999606-1.652238.123592-3.091833-1.11562-3.215426-2.767858-.123592-1.652238 1.11562-3.091833 2.767858-3.215426 16.47984-1.232744 31.112702-15.650549 43.835805-41.817883l.384964-.796545c11.066773-23.037 20.296933-54.16509 27.923064-91.612369 5.65709-27.77852 10.081869-57.105305 13.78142-88.472099l.553094-4.779061c1.383692-12.30782 4.387556-41.428118 4.861219-43.448813l.014396-.055729c2.025065-6.648325 1.001237-10.353263-3.486024-17.177866l-1.05171-1.584176c-4.112544-6.221124-5.590471-10.268371-4.655033-16.136114 1.150784-7.218557 1.31256-12.743936.885901-16.681737l-.032312-.272966-.554051-.113832c-14.343418-3.041614-29.197407-11.856458-44.012921-24.690129l-.694447-.604515c-6.527481-5.709972-12.602794-11.819818-18.072533-17.930361-1.56734-1.75096-2.993325-3.400766-4.267191-4.922037l-.783857-.943126-1.359252 1.087343c-2.619298 2.110439-5.960106 4.889242-10.098024 8.42455-2.638708 2.254431-5.518394 3.450667-8.773756 3.819661l-.493149.051074c-2.026482.189011-3.753476.080749-7.216651-.31935l-.424045-.049412c-8.176781-.960343-11.54643-.309539-15.955929 4.634855l-.229035.259587c-2.83341 3.232993-17.313372 26.430288-39.414552 62.85067l-6.999398 11.554891-2.861213 4.73413c-6.7144693 11.116271-13.6873439 22.70571-20.7141702 34.419707l-17.1872242 28.718559-4.4021433 7.379893c-.8478441 1.42349-2.6891249 1.890144-4.1126158 1.0423-1.3707691-.816442-1.8542654-2.554096-1.1311144-3.952802l5.0472076-8.471344 9.0978064-15.215993c9.0541531-15.124162 18.1399491-30.248416 26.8232136-44.632431l10.6960273-17.677955c22.952367-37.840835 37.429267-61.034027 40.642199-64.700058 3.388378-3.880706 7.050793-6.079303 11.165057-6.928729 2.729202-.563467 4.894615-.554894 8.848377-.130845l2.210136.250027c6.142823.672499 8.553317.308674 11.487524-2.198221l2.510473-2.135116c3.05054-2.581841 5.612727-4.701517 7.724662-6.403101l1.56855-1.252423c.3822-.302.731131-.57502 1.047871-.820302l1.035477-.789262c.086219-.064179.154408-.114243.205219-.150941z"/><path d="m265 198.2c2.5-14.9 3.5-21.3 3.5-21.3-38.2-5.9-77.5-53.9-77.5-53.9s-3.9 2.9-14.9 12.4c-4.4 3.8-9 3.8-13.8 3.3-3.4 41.7 71.5 78.8 106.9 80.6-2.2-10-6.1-9.8-4.2-21.1z"/><path d="m47.6150744 249.270897c11.2016198-1.418326 21.0671548 1.181516 28.9339653 8.537885 1.2101763 1.131653 1.2738317 3.030081.1421783 4.240258-1.1316534 1.210176-3.0300814 1.273831-4.2402577.142178-6.4651204-6.045628-14.5463489-8.175256-24.0821959-6.967847-8.6544073 1.095803-18.0616317 4.877766-27.5985389 10.51039-4.066742 2.401873-7.879198 4.978472-11.32264575 7.553384l-.87662102.661728c-.5674132.432464-1.10053205.84709-1.5976004 1.241121l-.71834512.575255c-.25571756.206952-.48449073.394588-.68542552.561496l-.41017104.344969c-1.25463323 1.082156-3.14897513.942336-4.23113107-.312297-1.08215593-1.254634-.94233546-3.148975.31229777-4.231131l.41452884-.350287c.17507843-.145874.38666271-.320219.63356389-.521112l.95410999-.766132c.79001573-.626306 1.66245626-1.298965 2.61165087-2.008745 3.60835171-2.698223 7.59826896-5.394757 11.86454526-7.914477 10.1802416-6.012586 20.3021489-10.081871 29.8960922-11.296636z"/><path d="m298.043797 15.8109601-.263331.0305403c-4.022834.5782772-15.095479 6.8771731-30.696657 16.9353301l-3.193298 2.0701093c-14.18256 9.2459163-28.132221 19.0594262-32.760853 23.0908154l-.252515.2289981c-4.148846 3.9033896-13.504766 19.2830268-27.204377 43.8470017l-.861873 1.547187c-.802917 1.443009-1.616481 2.910104-2.440068 4.40002l-2.426059 4.401815c-4.473075 8.139121-9.076125 16.639873-13.657791 25.196073l-3.97832 7.453086c-1.454393 2.733386-2.823419 5.31612-4.091132 7.715958l-2.675189 5.080413c-.744962 1.422627-.237541 3.1796 1.151177 3.986012l75.6 43.9.163117.088248c1.535801.771605 3.427244.092313 4.10653-1.514252l37.031842-87.583315.510194-.009834c15.645964-.357621 26.108089-4.501128 30.831693-11.180469 4.54469-6.4263516 2.361422-14.6515335-4.40078-15.1853914l-.179373-.0129904c-.88023-.0582738-2.050006-.0589068-3.492628-.0058774l-.919106.0385622.111266-.0359397c9.084258-3.0169355 14.551812-7.609983 16.284494-13.205693 1.956271-6.3177941-1.755713-12.9316555-7.353625-13.281525l-.130652-.0087512c-1.334957-.0752229-3.766422.1987523-7.225021.7888798l-.544462.0940291.200593-.1071313c4.986734-2.7342582 8.266335-6.8449758 9.32464-11.4800829 1.343907-5.8859727-1.320213-11.4654463-6.748753-12.8940094l-.164821-.0392802c-3.124517-.6810328-11.333211.9292933-22.631512 4.0949423l-1.208147.3405615.548816-.3180317c3.526339-2.0505774 6.535324-3.8869582 8.9418-5.4712218 6.580085-4.3318889 8.839009-10.2113405 6.535389-15.6189889-1.968604-4.6212153-7.012318-7.7897024-11.841208-7.3757975zm6.321198 9.7272823c1.087272 2.5523248-.017136 5.4268397-4.314611 8.2560111l-.792121.5162787c-2.851615 1.8409908-6.529828 4.0367508-10.879122 6.511869l-2.175139 1.2297259c-.523919.2943424-1.055229.5915624-1.593613.8915107-4.21297 2.3471601-8.697038 4.7725613-13.21166 7.1637459l-3.004126 1.5838261-4.73346 2.4638782-.727958.3743658c-3.319861 1.6991413-1.176761 6.7250223 2.347685 5.5056641l2.223696-.765252c23.899146-8.1806761 45.457447-14.1460005 48.840532-13.2663984 2.008545.5285781 3.092415 2.7985294 2.417669 5.7537467-.848097 3.7144527-4.154141 7.1263095-9.578857 8.9552996l-.49072.1614759-40.7 14.5c-3.532944 1.2586658-2.011155 6.4912866 1.560034 5.7757441l.321885-.0762708 5.656716-1.3985906 1.407113-.3440238c5.471328-1.3350223 11.065386-2.6699944 16.4566-3.9155024l2.365041-.5434994 3.358781-.7608803c12.611228-2.8296272 21.408367-4.4793465 23.446977-4.3200801 1.471138.0923095 2.923058 2.6792797 2.042903 5.5217463-1.421171 4.5896832-7.708747 8.8054661-19.610022 11.1329013l-3.993298.7620462c-21.06704 4.0795535-28.585003 6.7587122-29.747355 9.3740044-.932976 2.0991967.740365 4.4013424 2.988841 4.2084664l5.417584-.726723c4.02157-.5316789 8.19956-1.0633536 12.316586-1.5594069l2.11366-.2520559 4.72571-.5422791c9.734709-1.0827037 16.676305-1.6215212 19.242947-1.4188917 1.440054.1136886 2.12581 2.6971858-.02578 5.7396086-3.659488 5.174646-13.153626 8.711561-28.429894 8.669708l-.200236.006107c-1.127602.072012-2.126694.774414-2.571141 1.825567l-36.474842 86.263315-70.169-40.746 4.931958-9.315165c.636611-1.197398 1.290417-2.425233 1.960017-3.680671l2.490796-4.660827c5.403198-10.090406 10.835603-20.102439 16.046187-29.528686l2.431957-4.385396 2.440759-4.370283c12.522958-22.3364084 21.498672-36.9657628 24.575668-39.6457272 10.924929-9.5152604 58.205332-40.2205881 63.485861-40.6732049 2.197149-.188327 4.838209 1.4708001 5.808792 3.7492025z"/></g><g transform="translate(527 725)"><path d="m112.971499 6.50871477c16.059028-1.22673127 30.005874 10.82141053 31.119786 26.86278423 1.226731 16.0590276-10.82141 30.0058737-26.9098 31.1230065-3.834755.2324094-7.471693-.1622971-10.730168-1.2484556-1.57183-.5239433-2.42131-2.2229032-1.897367-3.7947332s2.222903-2.4213099 3.794733-1.8973666c2.482904.8276346 5.360837 1.1399684 8.443484.9532576 12.739802-.8847084 22.289676-11.9395771 21.315041-24.6993749-.884709-12.7398014-11.939577-22.2896755-24.693467-21.3154567-1.259809.0899864-2.521216.2701874-3.785154.5410311-1.620076.3471592-3.214835-.6847438-3.561994-2.3048199-.347159-1.62007612.684744-3.21483538 2.30482-3.56199454 1.536062-.32915628 3.074655-.54895523 4.600086-.65787799z"/><path d="m.9.2v85.8c0 16.6 13.4 30 30 30h50.6c16.6 0 30-13.4 30-30v-85.8zm44.7 62.8c.7.5 1 1 1 1.8 0 .6-.2 1-.6 1.4s-.9.6-1.4.6c-.4 0-.7-.1-1-.3l-20-12c-.7-.5-1.1-1.1-1.1-1.8s.4-1.3 1.1-1.8l20-12c.3-.2.6-.3 1-.3.6 0 1 .2 1.4.6s.6.9.6 1.4c0 .7-.3 1.3-1 1.8l-17.2 10.3zm25-29.6-16.1 40.2c-.1.2-.2.4-.4.6-.4.4-.9.6-1.4.6-.6 0-1-.2-1.4-.6s-.6-.9-.6-1.4c0-.3.1-.6.2-.9l16.1-40.2c.1-.2.2-.4.4-.6.4-.4.9-.6 1.4-.6.6 0 1 .2 1.4.6s.6.9.6 1.4c0 .4-.1.7-.2.9zm27.2 21.1-20 12c-.3.2-.6.3-1 .3-.6 0-1-.2-1.4-.6s-.6-.9-.6-1.4c0-.7.3-1.3 1-1.8l17.2-10.3-17.2-10.3c-.7-.5-1-1-1-1.8 0-.6.2-1 .6-1.4s.9-.6 1.4-.6c.4 0 .7.1 1 .3l20 12c.7.5 1.1 1.1 1.1 1.8.1.7-.3 1.4-1.1 1.8z"/></g><path d="m1640.2 840.5c1.65685 0 3 1.343146 3 3 0 1.597681-1.24892 2.903661-2.82373 2.994907l-.17627.005093h-1636.4c-1.65685425 0-3-1.343146-3-3 0-1.597681 1.24891996-2.903661 2.82372721-2.994907l.17627279-.005093z"/><path d="m854.5 417.5-5.5-85.6-110.4 7.1 3.8 57.9c9.8-8.4 58-40.6 65-41.2s15.4 9.6 3.4 17.5-37.4 20.9-37.4 20.9c21.1-7.4 47.8-15.4 52.8-14.1 7.6 2 7.1 16-7.4 20.6l-40.7 14.5s47.4-11.9 53.8-11.4 12 17.1-17.8 22.7c-29.8 5.7-31 8.3-31 8.3s36.7-5.2 44.3-4.5 7.8 20.5-28.7 20.4l-.2.5 28.1-1.8c16.4-1 29-15.3 27.9-31.8z"/></g></g></svg>